External Loads File
version=1
nRows=31
nColumns=13
Range=5.000000e-03-10 seconds
endheader
time 	forceRightX 	forceRightY 	forceRightZ 	pointRightX 	pointRightY 	pointRightZ 	forceLeftX 	forceLeftY 	forceLeftZ 	pointLeftX 	pointLeftY 	pointLeftZ 		
0.005000 21.982822 176.664563 -0.000000 0.171895 0.169241 -0.145515 5.792736 108.287601 -0.000000 0.314797 0.490067 -0.378324
0.010000 22.252762 177.299820 -0.000000 0.171811 0.169317 -0.145498 4.392877 105.620996 -0.000000 0.314906 0.490013 -0.378327
0.015000 22.529074 177.899009 -0.000000 0.171711 0.169370 -0.145496 3.115257 103.231081 -0.000000 0.314994 0.489958 -0.378321
0.020000 22.848421 178.422452 -0.000000 0.171607 0.169437 -0.145498 2.038353 101.283848 -0.000000 0.315128 0.489903 -0.378318
0.025000 23.258802 178.829528 -0.000000 0.171518 0.169522 -0.145523 1.169202 99.802904 -0.000000 0.315018 0.488975 -0.378299
0.030000 23.743337 179.087284 -0.000000 0.171432 0.169619 -0.145510 0.452591 98.740704 -0.000000 0.315529 0.489130 -0.378431
0.035000 23.925167 179.223693 -0.000000 0.171370 0.169719 -0.145506 -0.336034 98.043372 -0.000000 0.315641 0.489791 -0.378434
0.040000 24.088983 179.192260 -0.000000 0.171302 0.169781 -0.145507 -1.025987 97.644210 -0.000000 0.315746 0.490380 -0.378439
0.045000 24.348218 178.975165 -0.000000 0.171243 0.169836 -0.145521 -1.532724 97.473149 -0.000000 0.315862 0.490319 -0.378467
0.050000 24.495082 178.613905 -0.000000 0.171173 0.169937 -0.145529 -1.952046 97.461000 -0.000000 0.315795 0.490252 -0.378409
0.055000 24.634449 178.128648 -0.000000 0.171119 0.170020 -0.145537 -2.223806 97.531479 -0.000000 0.315806 0.490194 -0.378329
0.060000 24.812015 177.551225 -0.000000 0.171056 0.170120 -0.145545 -2.334558 97.618701 -0.000000 0.315899 0.490110 -0.378325
0.065000 24.990269 176.913858 -0.000000 0.170992 0.170194 -0.145532 -2.334536 97.685101 -0.000000 0.316016 0.490044 -0.378345
0.070000 25.176062 176.235874 -0.000000 0.170943 0.170323 -0.145525 -2.267043 97.703704 -0.000000 0.316123 0.489948 -0.378344
0.075000 25.364252 175.535970 -0.000000 0.170867 0.170428 -0.145531 -2.177568 97.663946 -0.000000 0.316248 0.489901 -0.378366
0.080000 25.557194 174.827727 -0.000000 0.170802 0.170556 -0.145528 -2.091600 97.574922 -0.000000 0.316394 0.489818 -0.378373
0.085000 25.711869 174.130823 -0.000000 0.170714 0.170629 -0.145530 -2.059824 97.423087 -0.000000 0.316524 0.489756 -0.378373
0.090000 25.862378 173.455949 -0.000000 0.170613 0.170758 -0.145543 -2.087027 97.185069 -0.000000 0.316682 0.489677 -0.378382
0.095000 25.968967 172.825760 -0.000000 0.170489 0.170857 -0.145536 -2.197538 96.874771 -0.000000 0.316823 0.489585 -0.378370
0.100000 26.057287 172.255335 -0.000000 0.170362 0.170955 -0.145523 -2.364260 96.523674 -0.000000 0.316997 0.489489 -0.378374
0.105000 26.132619 171.760455 -0.000000 0.170202 0.171042 -0.145519 -2.567174 96.147835 -0.000000 0.317165 0.489423 -0.378367
0.110000 26.221613 171.337637 -0.000000 0.170045 0.171149 -0.145504 -2.772847 95.756850 -0.000000 0.317338 0.489299 -0.378372
0.115000 26.393510 170.957683 -0.000000 0.169887 0.171254 -0.145514 -2.937421 95.350348 -0.000000 0.317532 0.488807 -0.378362
0.120000 26.542651 170.620978 -0.000000 0.169701 0.171391 -0.145505 -3.125633 94.930453 -0.000000 0.317641 0.488315 -0.378368
0.125000 26.645011 170.350917 -0.000000 0.169535 0.171523 -0.145521 -3.351115 94.540188 -0.000000 0.317843 0.488192 -0.378377
0.130000 26.792924 170.195035 -0.000000 0.169325 0.171647 -0.145538 -3.563634 94.235150 -0.000000 0.318063 0.488048 -0.378377
0.135000 26.980358 170.213741 -0.000000 0.169120 0.171800 -0.145558 -3.763702 94.047373 -0.000000 0.318290 0.487897 -0.378385
0.140000 27.193933 170.409830 -0.000000 0.168921 0.171983 -0.145549 -3.932332 94.003458 -0.000000 0.318510 0.487760 -0.378404
0.145000 27.408719 170.730034 -0.000000 0.168721 0.172141 -0.145548 -4.053802 94.113720 -0.000000 0.318740 0.487681 -0.378424
0.150000 27.668582 171.101342 -0.000000 0.168490 0.172297 -0.145563 -4.100131 94.366598 -0.000000 0.318985 0.487522 -0.378433
0.155000 27.929623 171.490383 -0.000000 0.168265 0.172458 -0.145559 -4.103470 94.762952 -0.000000 0.319210 0.487383 -0.378444
